<svg id="Ranks" xmlns="http://www.w3.org/2000/svg" viewBox="0 0 400 400"><defs><style>.cls-1{fill:#b46030;}</style></defs><path id="Bronze_I" data-name="Bronze I" class="cls-1" d="M200,63.62A136.38,136.38,0,1,0,336.38,200,136.38,136.38,0,0,0,200,63.62Zm16.8,249.7c.93-.8,1.86-1.6,2.78-2.42,4.07-3.54,7.89-7.39,11.71-11.18,3.68-4,7.39-7.88,10.77-12.14a172,172,0,0,0,40.37-119.11,198.82,198.82,0,0,0-4-32,100.7,100.7,0,0,0-26.32-22.89s0,.08,0,.11a179.78,179.78,0,0,1,3.05,54.14,143.21,143.21,0,0,1-14.24,50c-15,30.36-42.52,53.52-72.9,68.08a110.48,110.48,0,0,1-11.08,4.64l-5.59,1.77c-1.91.66-3.9,1.12-5.86,1.64-2.76.71-5.53,1.32-8.3,1.87a114.54,114.54,0,1,1,79.62,17.54Z"/></svg>