<svg id="Ranks" xmlns="http://www.w3.org/2000/svg" viewBox="0 0 400 400"><defs><style>.cls-1{fill:#2ad4f8;}</style></defs><path id="Platinum_I" data-name="Platinum I" class="cls-1" d="M267.5,233.8l75.78-55-7.9-24.3H241.73L212.39,64.2H187.61l-29.34,90.26H64.62l-7.9,24.3,75.78,55L107,312.32l26.24,19.06L200,282.85l72.88,52.95,22.47-16.3ZM200,259.09l-42.66,31a336.12,336.12,0,0,0,31.89-32,271,271,0,0,0,29-38.73,252.64,252.64,0,0,0,18.27-36.11H220.79l0-.1a260.74,260.74,0,0,1-38.49,38.63,261.15,261.15,0,0,1-33.14,22.93l6-18.29L82.39,173.67h89.83L200,88.22l27.78,85.45h89.83L244.9,226.45l27.79,85.48Z"/></svg>